<mxfile host="app.diagrams.net" modified="2022-09-20T10:09:53.008Z" agent="5.0 (Windows NT 10.0; Win64; x64) AppleWebKit/537.36 (KHTML, like Gecko) Chrome/105.0.0.0 Safari/537.36" etag="9INt3Af0yiY-JqbU2gQL" version="20.1.1" type="github">
  <diagram id="gz4pHjL-06JSOaTFr1nH" name="Page-1">
    <mxGraphModel dx="1673" dy="887" grid="1" gridSize="10" guides="1" tooltips="1" connect="1" arrows="1" fold="1" page="1" pageScale="1" pageWidth="1654" pageHeight="2336" math="0" shadow="0">
      <root>
        <mxCell id="0" />
        <mxCell id="1" parent="0" />
        <mxCell id="wQgZBlPIJrauqGj7kI10-8" value="" style="rounded=0;whiteSpace=wrap;html=1;glass=0;sketch=0;shadow=0;" vertex="1" parent="1">
          <mxGeometry x="460" y="20" width="680" height="340" as="geometry" />
        </mxCell>
        <mxCell id="wQgZBlPIJrauqGj7kI10-4" style="edgeStyle=orthogonalEdgeStyle;rounded=0;orthogonalLoop=1;jettySize=auto;html=1;entryX=0.5;entryY=0;entryDx=0;entryDy=0;" edge="1" parent="1" source="wQgZBlPIJrauqGj7kI10-1" target="wQgZBlPIJrauqGj7kI10-2">
          <mxGeometry relative="1" as="geometry" />
        </mxCell>
        <mxCell id="wQgZBlPIJrauqGj7kI10-5" style="edgeStyle=orthogonalEdgeStyle;rounded=0;orthogonalLoop=1;jettySize=auto;html=1;entryX=0.5;entryY=0;entryDx=0;entryDy=0;" edge="1" parent="1" source="wQgZBlPIJrauqGj7kI10-1" target="wQgZBlPIJrauqGj7kI10-3">
          <mxGeometry relative="1" as="geometry" />
        </mxCell>
        <mxCell id="wQgZBlPIJrauqGj7kI10-1" value="AbstractSceneLoader" style="rounded=1;whiteSpace=wrap;html=1;" vertex="1" parent="1">
          <mxGeometry x="720" y="80" width="160" height="40" as="geometry" />
        </mxCell>
        <mxCell id="wQgZBlPIJrauqGj7kI10-18" style="edgeStyle=orthogonalEdgeStyle;rounded=0;orthogonalLoop=1;jettySize=auto;html=1;entryX=0.5;entryY=0;entryDx=0;entryDy=0;" edge="1" parent="1" source="wQgZBlPIJrauqGj7kI10-2" target="wQgZBlPIJrauqGj7kI10-15">
          <mxGeometry relative="1" as="geometry" />
        </mxCell>
        <mxCell id="wQgZBlPIJrauqGj7kI10-19" style="edgeStyle=orthogonalEdgeStyle;rounded=0;orthogonalLoop=1;jettySize=auto;html=1;entryX=0.5;entryY=0;entryDx=0;entryDy=0;" edge="1" parent="1" source="wQgZBlPIJrauqGj7kI10-2" target="wQgZBlPIJrauqGj7kI10-16">
          <mxGeometry relative="1" as="geometry" />
        </mxCell>
        <mxCell id="wQgZBlPIJrauqGj7kI10-2" value="NetworkSceneLoader" style="rounded=1;whiteSpace=wrap;html=1;" vertex="1" parent="1">
          <mxGeometry x="600" y="200" width="120" height="40" as="geometry" />
        </mxCell>
        <mxCell id="wQgZBlPIJrauqGj7kI10-3" value="SceneLoader" style="rounded=1;whiteSpace=wrap;html=1;" vertex="1" parent="1">
          <mxGeometry x="880" y="200" width="120" height="40" as="geometry" />
        </mxCell>
        <mxCell id="wQgZBlPIJrauqGj7kI10-9" value="SceneManager" style="rounded=1;whiteSpace=wrap;html=1;shadow=0;glass=0;sketch=0;" vertex="1" parent="1">
          <mxGeometry x="707" y="460" width="120" height="40" as="geometry" />
        </mxCell>
        <mxCell id="wQgZBlPIJrauqGj7kI10-13" value="Load/Unload Scene when no player in it" style="rounded=0;whiteSpace=wrap;html=1;shadow=0;glass=0;sketch=0;" vertex="1" parent="1">
          <mxGeometry x="960" y="40" width="120" height="60" as="geometry" />
        </mxCell>
        <mxCell id="wQgZBlPIJrauqGj7kI10-15" value="SeverSceneLoader" style="rounded=1;whiteSpace=wrap;html=1;" vertex="1" parent="1">
          <mxGeometry x="500" y="280" width="120" height="40" as="geometry" />
        </mxCell>
        <mxCell id="wQgZBlPIJrauqGj7kI10-16" value="ClientSceneLoader" style="rounded=1;whiteSpace=wrap;html=1;" vertex="1" parent="1">
          <mxGeometry x="690" y="280" width="120" height="40" as="geometry" />
        </mxCell>
      </root>
    </mxGraphModel>
  </diagram>
</mxfile>
